<svg height='100px' width='100px'  fill="#000000" xmlns="http://www.w3.org/2000/svg" xmlns:xlink="http://www.w3.org/1999/xlink" version="1.1" x="0px" y="0px" viewBox="0 0 100 100" style="enable-background:new 0 0 100 100;" xml:space="preserve"><path d="M64.8,63.4c1.2,0.3,2.9,0.2,4-0.1c3.5-0.9,3.6-3.5,3.7-4.6c0.1-1.5-0.8-4.1-4.7-4.8c-1.8-0.3-3-0.3-4.1-0.3  c-1.1,0-2,0.1-3.4,0.3c-0.4,0.1-0.9,0.2-1.2,0.2c-1-1-1.7-2-2.8-3.5c-2.1-3-3.4-5.1-5.5-8.8c-0.3-0.5-0.6-1.1-0.9-1.6  c0.2-0.9,0.4-1.9,0.6-3.1l0.3-1.4c0.8-3.8,1-5.1,0.4-8.2c-0.7-3.4-3.1-4.2-4.2-4.1v0c-0.6,0-3,0.4-4,3.9c-0.7,2.4-0.6,4.2,0,6.7  c0.4,1.8,1.3,4,2.8,6.7c-0.5,2.1-1.1,4-2.2,7.2c-1.1,3.3-1.6,4.6-1.8,5.4c-0.3,0.9-0.3,0.9-0.9,2.4l-0.1,0.2  c-0.7,1.9-1.9,4.2-2.7,5.7c-1.2,0.6-2.4,1.2-4.1,2.2c-3.6,2.1-6.1,3.6-7,6c-0.5,1.3-1.7,4.5,0.9,6.6c0.9,0.8,2.1,1.2,3.2,1.2  c1.2,0,2.3-0.4,3.2-1.2c1.2-1.1,1.7-2.1,2.7-4c0.3-0.5,0.6-1.1,1-1.9c1.6-3.1,2.6-5.2,2.8-5.5c0-0.1,0.1-0.2,0.2-0.3  c0.7-0.3,1.5-0.6,2.4-1c3.3-1.4,4.7-1.8,7.7-2.8l1.4-0.5c1.1-0.4,1.9-0.6,2.7-0.9c1-0.4,1.8-0.6,2.6-0.9c0.7,0.6,1.4,1.3,2.3,2  C62.1,62.2,63.4,63,64.8,63.4z M63.7,57.6c1,0,2,0,3.4,0.3c1,0.2,1.3,0.6,1.3,0.7c0,0.2,0,0.6,0,0.7c0,0-0.1,0.1-0.6,0.2  c-0.7,0.2-1.7,0.2-2,0.1c-0.5-0.2-1.3-0.5-3-1.9C63.2,57.6,63.4,57.6,63.7,57.6z M34.5,68.6c-0.4,0.7-0.7,1.4-1,1.9  c-1,1.9-1.2,2.3-1.8,2.9c-0.4,0.3-0.9,0.1-1.2-0.1c-0.1-0.1-0.4-0.3,0.3-2.1c0.4-1,2.3-2.2,4-3.3C34.7,68.2,34.6,68.4,34.5,68.6z   M46.9,28.4c0.1-0.3,0.2-0.6,0.3-0.7c0.1,0.1,0.1,0.3,0.2,0.6c0.4,2.2,0.4,2.9-0.2,5.8c-0.1-0.3-0.2-0.6-0.2-0.8  C46.5,31.1,46.4,30,46.9,28.4z M53.9,55.6c-0.7,0.3-1.5,0.5-2.6,0.9L49.9,57c-2.5,0.8-3.9,1.3-6.2,2.2c0.3-0.6,0.5-1.2,0.8-1.8  l0.1-0.2c0.6-1.6,0.6-1.6,1-2.6c0.2-0.7,0.7-2.1,1.8-5.3c0.5-1.3,0.8-2.5,1.1-3.5c1.5,2.6,2.7,4.6,4.5,7.1c0.7,0.9,1.2,1.7,1.8,2.4  C54.5,55.4,54.2,55.5,53.9,55.6z M83,21.1C83,14.4,77.7,9,71.1,9H28.9C22.3,9,17,14.4,17,21.1v57.9C17,85.6,22.3,91,28.9,91h32.2  c0.1,0,0.3,0,0.4,0c0.1,0,0.1,0,0.2-0.1c0.1,0,0.1,0,0.2-0.1c0.1,0,0.1-0.1,0.2-0.1c0,0,0.1,0,0.1-0.1c0.1-0.1,0.2-0.2,0.3-0.3  c0,0,0,0,0,0l19.8-20.1c0,0,0,0,0,0l0,0c0,0,0-0.1,0.1-0.1c0.1-0.1,0.1-0.1,0.2-0.2c0-0.1,0.1-0.1,0.1-0.2c0-0.1,0.1-0.1,0.1-0.2  c0-0.1,0-0.1,0.1-0.2c0-0.1,0-0.1,0-0.2c0-0.1,0-0.3,0-0.4c0,0,0,0,0,0s0,0,0,0V21.1z M21,78.9V21.1c0-4.4,3.6-8.1,7.9-8.1h42.2  c4.4,0,7.9,3.6,7.9,8.1v45.8H66.1c-3.8,0-7,3.2-7,7V87H28.9C24.6,87,21,83.4,21,78.9z M76.2,70.9L63.2,84.1V73.9c0-1.7,1.3-3,3-3  H76.2z"></path></svg>